<svg xmlns="http://www.w3.org/2000/svg" width="58.543" height="64" viewBox="0 0 58.543 64"><path d="M41.326,64H17.235A17.209,17.209,0,0,1,.026,46.791V27.863c0-.074,0-.167-.01-.275C-.034,26.515-.153,24,2.678,20.955L24.755,1.7a6.884,6.884,0,0,1,9.049,0L55.882,20.955a9.145,9.145,0,0,1,2.655,6.71c0,.077,0,.143,0,.2V46.791A17.208,17.208,0,0,1,41.326,64Zm-12.5-24.092a3.015,3.015,0,0,0-3.011,3.011v9.465a3.011,3.011,0,0,0,6.023,0V42.92A3.015,3.015,0,0,0,28.823,39.908Z" transform="translate(0.001)" fill="#4a45e9"/></svg>